<?xml version="1.0" encoding="utf-8"?>

<!DOCTYPE svg PUBLIC "-//W3C//DTD SVG 1.1//EN" "http://www.w3.org/Graphics/SVG/1.1/DTD/svg11.dtd">
<!-- Uploaded to: SVG Repo, www.svgrepo.com, Generator: SVG Repo Mixer Tools -->
<svg height="800px" width="800px" version="1.1" id="_x32_" xmlns="http://www.w3.org/2000/svg" xmlns:xlink="http://www.w3.org/1999/xlink" 
	 viewBox="0 0 512 512"  xml:space="preserve">
<style type="text/css">
	.st0{fill:#000000;}
</style>
<g>
	<path class="st0" d="M395.517,101.081l-48.098,43.517c-2.301,2.072-3.655,4.995-3.766,8.084c-0.117,2.957,0.919,5.846,2.881,8.057
		c-2.584,1.05-5.182,1.866-7.76,2.384c-25.462,5.176-52.844-6.736-73.884-3.551c-1.368,0.214-2.687,0.463-3.986,0.684
		c-3.614-0.926-7.372-1.7-11.366-2.308c-2.881-0.435-5.784-0.615-8.672-0.615c-8.291,0.021-16.562,1.389-24.778,2.646
		c-8.202,1.271-16.314,2.459-23.962,2.459c-4.022,0-7.905-0.318-11.636-1.091c-3.993-0.788-8.27-2.557-12.61-5.01
		c0.345-1.168,0.511-2.412,0.47-3.655c-0.124-3.088-1.492-6.011-3.78-8.084l-48.097-43.517
		C88.061,79.427-13.413,216.07,1.484,232.307c14.87,16.238,41.7,40.58,41.7,40.58c2.204,2.135,5.168,3.323,8.25,3.255
		c3.075-0.062,5.997-1.354,8.112-3.587l18.11-19.118c0.249,0.283,0.504,0.553,0.726,0.843c1.554,1.796,2.743,3.593,3.213,4.595
		c2.031,4.319,7.206,14.849,14.103,26.63c3.454,5.887,7.338,12.085,11.504,17.999c2.115,2.972,4.284,5.894,6.537,8.658
		c-6.108,7.559-6.067,18.656,0.594,26.166c7.435,8.402,20.266,9.169,28.661,1.728l0.581-0.518
		c-3.614,7.207-2.73,16.189,2.929,22.587c7.435,8.389,20.259,9.162,28.654,1.721l3.296-2.999c-4.512,7.4-3.896,17.185,2.15,24.011
		c7.434,8.374,20.258,9.148,28.647,1.734l5.085-4.602c-4.782,7.462-4.29,17.46,1.88,24.412c7.434,8.388,20.266,9.169,28.654,1.728
		l8.195-7.048c0.795,0.373,1.534,0.711,2.245,1.036l5.611,3.275l-0.048-0.041c2.784,1.672,5.707,3.026,8.72,3.973
		c3.02,0.946,6.143,1.499,9.321,1.499c3.455,0,6.985-0.663,10.254-2.128c3.31-1.45,6.343-3.703,8.851-6.55
		c3.013-3.386,5.002-7.359,6.025-11.498c2.985,1.085,6.115,1.63,9.218,1.63c3.752,0,7.496-0.774,10.979-2.308
		c3.475-1.534,6.716-3.835,9.39-6.854c3.316-3.731,5.41-8.174,6.316-12.776c1.769,0.359,3.572,0.56,5.382,0.56
		c3.738,0,7.49-0.76,10.973-2.307c3.482-1.528,6.709-3.835,9.376-6.848c3.621-4.09,5.797-9.031,6.529-14.089
		c0.774,0.069,1.555,0.097,2.322,0.097c4.498,0,8.913-0.968,12.99-2.695c4.083-1.741,7.863-4.27,10.924-7.69
		c2.82-3.213,4.976-6.958,6.502-10.993c1.514-4.049,2.411-8.368,2.426-12.797c0-1.616-0.125-3.248-0.415-4.864
		c15.65-17.398,23.92-46.377,27.5-53.978c0.118-0.249,0.242-0.504,0.387-0.761l17.612,18.58c2.1,2.232,5.023,3.524,8.098,3.587
		c3.096,0.068,6.059-1.12,8.263-3.255c0,0,26.83-24.342,41.707-40.58C525.395,216.07,423.935,79.427,395.517,101.081z
		 M389.747,320.64c-0.884,2.363-2.184,4.532-3.461,5.956v-0.014c-1.168,1.34-2.992,2.639-5.114,3.551
		c-2.128,0.898-4.525,1.389-6.646,1.389c-1.389,0-2.668-0.214-3.697-0.56c-0.069-0.028-0.124-0.048-0.187-0.069l-23.153-22.346
		c-3.227-3.109-8.368-3.012-11.477,0.207c-3.116,3.227-3.026,8.368,0.2,11.477l18.677,18.027c0.069,0.179,0.131,0.352,0.221,0.532
		c0.781,1.527,1.168,3.241,1.168,4.94c-0.014,2.612-0.891,5.141-2.75,7.241c-1.099,1.244-2.378,2.142-3.78,2.764
		c-1.389,0.621-2.909,0.94-4.422,0.94c-2.618-0.014-5.154-0.899-7.268-2.764l-0.477-0.428c-0.083-0.097-0.145-0.208-0.235-0.318
		l-20.3-21.185c-3.096-3.247-8.243-3.358-11.476-0.263c-3.24,3.096-3.352,8.25-0.249,11.484l17.204,17.978
		c0.042,0.062,0.084,0.138,0.118,0.193c1.044,1.728,1.583,3.718,1.583,5.714c0,2.619-0.884,5.155-2.75,7.262
		c-1.092,1.23-2.377,2.128-3.78,2.764c-1.395,0.608-2.908,0.912-4.436,0.912c-2.605,0-5.148-0.884-7.255-2.742l-0.312-0.256
		l-6.287-5.044l-10.275-10.916c-3.075-3.255-8.208-3.407-11.47-0.332c-3.261,3.068-3.42,8.222-0.345,11.477l9.763,10.357
		c1.002,1.7,1.534,3.62,1.534,5.569c-0.007,2.598-0.891,5.141-2.743,7.228c-1.112,1.264-2.176,1.996-3.275,2.488
		c-1.092,0.477-2.259,0.732-3.682,0.739c-1.292,0-2.785-0.228-4.436-0.754c-1.665-0.525-3.455-1.34-5.32-2.432l-0.049-0.042
		l-2.854-1.659c7.939-7.49,8.554-19.975,1.264-28.204c-7.338-8.264-19.92-9.107-28.315-1.99l1.52-1.368
		c8.382-7.428,9.156-20.259,1.728-28.647c-7.435-8.389-20.266-9.162-28.648-1.728l-4.968,4.484
		c4.788-7.441,4.291-17.46-1.886-24.412c-7.428-8.388-20.245-9.169-28.647-1.727l-6.599,6.011c3.095-7.02,2.06-15.525-3.364-21.648
		c-7.422-8.395-20.259-9.162-28.648-1.734l-13.985,12.396c-1.755-2.205-3.517-4.561-5.244-7.007
		c-5.721-8.126-11.097-17.191-15.354-24.957c-4.27-7.767-7.448-14.261-8.837-17.226c-0.732-1.555-1.604-2.978-2.543-4.346
		c-1.464-2.135-3.144-4.118-4.864-5.991l68.695-72.516c6.081,3.696,12.624,6.716,19.685,8.167
		c5.031,1.022,10.012,1.395,14.884,1.395c9.279-0.007,18.199-1.368,26.449-2.639c2.073-0.332,4.111-0.636,6.095-0.94
		c-6.185,4.27-12.182,9.335-18.573,15.284c-18.179,16.977-33.885,37.713-42.584,47.137c-8.706,9.411,7.477,25.745,33.228,18.255
		c25.758-7.476,36.856-26.685,36.856-26.685l32.322-11.601l32.088,7.345l77.567,69.828l13.397,12.962l0.27,0.222
		c0.526,0.497,0.94,1.077,1.299,2.017c0.36,0.94,0.581,2.211,0.581,3.732C391.128,315.713,390.645,318.277,389.747,320.64z"/>
</g>
</svg>